<svg width="16" height="13" fill="none" xmlns="http://www.w3.org/2000/svg"><g clip-path="url(#clip0)"><path d="M14.594 1.131H1.406C.632 1.131 0 1.726 0 2.457v8.839c0 .728.629 1.326 1.406 1.326h13.188c.772 0 1.406-.594 1.406-1.326V2.457c0-.728-.629-1.326-1.406-1.326zm-.194.884L8.03 8.021 1.605 2.014H14.4zM.937 11.113V2.636l4.515 4.22-4.514 4.257zm.663.625l4.518-4.26 1.583 1.48a.49.49 0 00.662-.001L9.906 7.5l4.494 4.237H1.6zm13.463-.625l-4.494-4.237 4.493-4.236v8.473z" fill="#fff"/></g><defs><clipPath id="clip0"><path fill="#fff" transform="translate(0 .881)" d="M0 0h16v11.991H0z"/></clipPath></defs></svg>