<svg width="11" height="20" fill="none" xmlns="http://www.w3.org/2000/svg"><g clip-path="url(#clip0)" stroke="#fff" stroke-miterlimit="10" stroke-linecap="round" stroke-linejoin="round"><path d="M8.96 19.52H2.04c-.947 0-1.676-.76-1.676-1.747V3.041c0-.987.729-1.747 1.676-1.747h6.92c.947 0 1.676.76 1.676 1.747v14.732c0 .987-.729 1.747-1.676 1.747zM.364 4.408h10.272M4.517 2.813h1.966M.364 16.482h10.272"/><path d="M5.536 18.456A.447.447 0 005.974 18a.446.446 0 00-.438-.455A.446.446 0 005.1 18c0 .252.196.456.437.456z"/></g><defs><clipPath id="clip0"><path fill="#fff" transform="translate(0 .914)" d="M0 0h11v18.985H0z"/></clipPath></defs></svg>