<?xml version="1.0" encoding="utf-8"?><svg xmlns="http://www.w3.org/2000/svg" xmlns:xlink="http://www.w3.org/1999/xlink"><symbol viewBox="0 0 43 42" fill="none" id="vk" xmlns="http://www.w3.org/2000/svg"><g clip-path="url(#aa)"><path d="M21.743 41.008c11.267 0 20.401-8.907 20.401-19.893S33.01 1.222 21.743 1.222 1.342 10.13 1.342 21.115s9.134 19.893 20.4 19.893z" fill="#0082E0"/><path fill-rule="evenodd" clip-rule="evenodd" d="M34.342 14.949c.182-.569 0-.986-.865-.986h-2.859c-.726 0-1.062.36-1.243.759 0 0-1.454 3.324-3.514 5.484-.666.625-.97.824-1.333.824-.181 0-.454-.199-.454-.767v-5.314c0-.682-.202-.986-.807-.986h-4.493c-.454 0-.727.316-.727.616 0 .647 1.03.796 1.135 2.615v3.95c0 .866-.166 1.023-.53 1.023-.969 0-3.327-3.34-4.725-7.161-.274-.743-.549-1.043-1.28-1.043H9.79c-.817 0-.98.36-.98.759 0 .71.969 4.234 4.512 8.894 2.363 3.183 5.691 4.908 8.72 4.908 1.818 0 2.043-.383 2.043-1.043v-2.406c0-.766.172-.919.747-.919.424 0 1.151.199 2.847 1.733 1.939 1.82 2.258 2.635 3.349 2.635h2.859c.817 0 1.225-.383.99-1.14-.258-.753-1.184-1.846-2.412-3.143-.666-.739-1.666-1.534-1.969-1.932-.424-.512-.303-.739 0-1.194 0 0 3.483-4.603 3.847-6.166z" fill="#fff"/></g><defs><clipPath id="aa"><path fill="#fff" transform="translate(.875 .767)" d="M0 0h42v40.953H0z"/></clipPath></defs></symbol><symbol viewBox="0 0 42 42" fill="none" id="youtube" xmlns="http://www.w3.org/2000/svg"><g clip-path="url(#ba)"><path d="M20.868 41.008c11.267 0 20.401-8.907 20.401-19.893S32.135 1.222 20.868 1.222.467 10.13.467 21.115s9.134 19.893 20.4 19.893z" fill="#EE3829"/><g clip-path="url(#bb)"><path d="M33.608 15.025c-.305-1.138-1.222-1.972-2.292-2.275C29.253 12.143 21 12.143 21 12.143s-8.176 0-10.24.53c-1.07.304-1.986 1.214-2.292 2.276-.535 2.048-.535 6.295-.535 6.295s0 4.247.535 6.219c.306 1.137 1.223 1.971 2.293 2.275 2.063.607 10.239.607 10.239.607s8.176 0 10.24-.531c1.146-.304 1.986-1.214 2.292-2.276.535-2.047.535-6.218.535-6.218s.076-4.323-.459-6.295zM18.402 25.112v-7.736l6.8 3.868-6.8 3.868z" fill="#fff"/></g></g><defs><clipPath id="ba"><path fill="#fff" transform="translate(0 .767)" d="M0 0h42v40.953H0z"/></clipPath><clipPath id="bb"><path fill="#fff" transform="translate(7.933 12.143)" d="M0 0h26.133v18.201H0z"/></clipPath></defs></symbol></svg>