<?xml version="1.0" encoding="utf-8"?><svg xmlns="http://www.w3.org/2000/svg" xmlns:xlink="http://www.w3.org/1999/xlink"><symbol viewBox="0 0 16 17" fill="none" id="clock" xmlns="http://www.w3.org/2000/svg"><g clip-path="url(#aa)" stroke="#fff" stroke-miterlimit="10" stroke-linecap="round" stroke-linejoin="round"><path d="M8 16.463a7.526 7.526 0 007.53-7.524A7.526 7.526 0 008 1.416 7.526 7.526 0 00.47 8.939 7.526 7.526 0 008 16.463z"/><path d="M8 4.848v4.09l3.153 3.151M8 1.416v1.08M.47 8.939h1.083M8 16.462V15.38m7.53-6.441h-1.083"/></g><defs><clipPath id="aa"><path fill="#fff" transform="translate(0 .945)" d="M0 0h16v15.987H0z"/></clipPath></defs></symbol><symbol viewBox="0 0 16 13" fill="none" id="email" xmlns="http://www.w3.org/2000/svg"><g clip-path="url(#ba)"><path d="M14.594 1.131H1.406C.632 1.131 0 1.726 0 2.457v8.839c0 .728.629 1.326 1.406 1.326h13.188c.772 0 1.406-.594 1.406-1.326V2.457c0-.728-.629-1.326-1.406-1.326zm-.194.884L8.03 8.021 1.605 2.014H14.4zM.937 11.113V2.636l4.515 4.22-4.514 4.257zm.663.625l4.518-4.26 1.583 1.48a.49.49 0 00.662-.001L9.906 7.5l4.494 4.237H1.6zm13.463-.625l-4.494-4.237 4.493-4.236v8.473z" fill="#fff"/></g><defs><clipPath id="ba"><path fill="#fff" transform="translate(0 .881)" d="M0 0h16v11.991H0z"/></clipPath></defs></symbol><symbol viewBox="0 0 14 18" fill="none" id="geolocation" xmlns="http://www.w3.org/2000/svg"><path d="M6.832 1C3.592 1 1 3.56 1 6.76c0 4.022 5.276 9.782 5.508 10.056.231.228.555.228.833 0 .231-.229 5.508-6.125 5.508-10.056C12.803 3.65 10.119 1 6.832 1zm0 8.73c-1.62 0-2.916-1.28-2.916-2.879 0-1.6 1.296-2.88 2.916-2.88 1.62 0 2.916 1.28 2.916 2.88.092 1.6-1.25 2.88-2.916 2.88z" stroke="#fff" stroke-miterlimit="10"/></symbol><symbol viewBox="0 0 11 20" fill="none" id="phone" xmlns="http://www.w3.org/2000/svg"><g clip-path="url(#da)" stroke="#fff" stroke-miterlimit="10" stroke-linecap="round" stroke-linejoin="round"><path d="M8.96 19.52H2.04c-.947 0-1.676-.76-1.676-1.747V3.041c0-.987.729-1.747 1.676-1.747h6.92c.947 0 1.676.76 1.676 1.747v14.732c0 .987-.729 1.747-1.676 1.747zM.364 4.408h10.272M4.517 2.813h1.966M.364 16.482h10.272"/><path d="M5.536 18.456A.447.447 0 005.974 18a.446.446 0 00-.438-.455A.446.446 0 005.1 18c0 .252.196.456.437.456z"/></g><defs><clipPath id="da"><path fill="#fff" transform="translate(0 .914)" d="M0 0h11v18.985H0z"/></clipPath></defs></symbol><symbol viewBox="0 0 48 48" fill="none" id="play" xmlns="http://www.w3.org/2000/svg"><path d="M32.7 24.389l-13.275 8.997V15.392L32.7 24.389z" fill="#fff"/><circle cx="24" cy="24" r="23" stroke="#fff" stroke-width="2"/></symbol><symbol viewBox="0 0 43 42" fill="none" id="vk" xmlns="http://www.w3.org/2000/svg"><g clip-path="url(#fa)"><path d="M21.743 41.008c11.267 0 20.401-8.907 20.401-19.893S33.01 1.222 21.743 1.222 1.342 10.13 1.342 21.115s9.134 19.893 20.4 19.893z" fill="#0082E0"/><path fill-rule="evenodd" clip-rule="evenodd" d="M34.342 14.949c.182-.569 0-.986-.865-.986h-2.859c-.726 0-1.062.36-1.243.759 0 0-1.454 3.324-3.514 5.484-.666.625-.97.824-1.333.824-.181 0-.454-.199-.454-.767v-5.314c0-.682-.202-.986-.807-.986h-4.493c-.454 0-.727.316-.727.616 0 .647 1.03.796 1.135 2.615v3.95c0 .866-.166 1.023-.53 1.023-.969 0-3.327-3.34-4.725-7.161-.274-.743-.549-1.043-1.28-1.043H9.79c-.817 0-.98.36-.98.759 0 .71.969 4.234 4.512 8.894 2.363 3.183 5.691 4.908 8.72 4.908 1.818 0 2.043-.383 2.043-1.043v-2.406c0-.766.172-.919.747-.919.424 0 1.151.199 2.847 1.733 1.939 1.82 2.258 2.635 3.349 2.635h2.859c.817 0 1.225-.383.99-1.14-.258-.753-1.184-1.846-2.412-3.143-.666-.739-1.666-1.534-1.969-1.932-.424-.512-.303-.739 0-1.194 0 0 3.483-4.603 3.847-6.166z" fill="#fff"/></g><defs><clipPath id="fa"><path fill="#fff" transform="translate(.875 .767)" d="M0 0h42v40.953H0z"/></clipPath></defs></symbol><symbol viewBox="0 0 42 42" fill="none" id="youtube" xmlns="http://www.w3.org/2000/svg"><g clip-path="url(#ga)"><path d="M20.868 41.008c11.267 0 20.401-8.907 20.401-19.893S32.135 1.222 20.868 1.222.467 10.13.467 21.115s9.134 19.893 20.4 19.893z" fill="#EE3829"/><g clip-path="url(#gb)"><path d="M33.608 15.025c-.305-1.138-1.222-1.972-2.292-2.275C29.253 12.143 21 12.143 21 12.143s-8.176 0-10.24.53c-1.07.304-1.986 1.214-2.292 2.276-.535 2.048-.535 6.295-.535 6.295s0 4.247.535 6.219c.306 1.137 1.223 1.971 2.293 2.275 2.063.607 10.239.607 10.239.607s8.176 0 10.24-.531c1.146-.304 1.986-1.214 2.292-2.276.535-2.047.535-6.218.535-6.218s.076-4.323-.459-6.295zM18.402 25.112v-7.736l6.8 3.868-6.8 3.868z" fill="#fff"/></g></g><defs><clipPath id="ga"><path fill="#fff" transform="translate(0 .767)" d="M0 0h42v40.953H0z"/></clipPath><clipPath id="gb"><path fill="#fff" transform="translate(7.933 12.143)" d="M0 0h26.133v18.201H0z"/></clipPath></defs></symbol></svg>