<svg width="42" height="42" fill="none" xmlns="http://www.w3.org/2000/svg"><g clip-path="url(#clip0)"><path d="M20.868 41.008c11.267 0 20.401-8.907 20.401-19.893S32.135 1.222 20.868 1.222.467 10.13.467 21.115s9.134 19.893 20.4 19.893z" fill="#EE3829"/><g clip-path="url(#clip1)"><path d="M33.608 15.025c-.305-1.138-1.222-1.972-2.292-2.275C29.253 12.143 21 12.143 21 12.143s-8.176 0-10.24.53c-1.07.304-1.986 1.214-2.292 2.276-.535 2.048-.535 6.295-.535 6.295s0 4.247.535 6.219c.306 1.137 1.223 1.971 2.293 2.275 2.063.607 10.239.607 10.239.607s8.176 0 10.24-.531c1.146-.304 1.986-1.214 2.292-2.276.535-2.047.535-6.218.535-6.218s.076-4.323-.459-6.295zM18.402 25.112v-7.736l6.8 3.868-6.8 3.868z" fill="#fff"/></g></g><defs><clipPath id="clip0"><path fill="#fff" transform="translate(0 .767)" d="M0 0h42v40.953H0z"/></clipPath><clipPath id="clip1"><path fill="#fff" transform="translate(7.933 12.143)" d="M0 0h26.133v18.201H0z"/></clipPath></defs></svg>