<svg width="16" height="13" viewBox="0 0 16 13" fill="none" xmlns="http://www.w3.org/2000/svg">
<g clip-path="url(#clip0)">
<path d="M14.5938 1.1312H1.40625C0.631813 1.1312 0 1.72622 0 2.45701V11.2958C0 12.0241 0.629 12.6216 1.40625 12.6216H14.5938C15.3663 12.6216 16 12.0285 16 11.2958V2.45701C16 1.72869 15.371 1.1312 14.5938 1.1312ZM14.3996 2.01507L8.02981 8.0205L1.60497 2.01507H14.3996ZM0.9375 11.1127V2.63581L5.45247 6.85602L0.9375 11.1127ZM1.60041 11.7377L6.11822 7.4783L7.70125 8.95796C7.8845 9.12926 8.18022 9.1287 8.36272 8.95661L9.90625 7.50137L14.3996 11.7377H1.60041ZM15.0625 11.1127L10.5692 6.87638L15.0625 2.64003V11.1127Z" fill="white"/>
</g>
<defs>
<clipPath id="clip0">
<rect width="16" height="11.9905" fill="white" transform="translate(0 0.880951)"/>
</clipPath>
</defs>
</svg>
