<svg width="14" height="18" viewBox="0 0 14 18" fill="none" xmlns="http://www.w3.org/2000/svg">
<path d="M6.83187 1C3.59194 1 1 3.5598 1 6.75954C1 10.7821 6.27645 16.5416 6.50788 16.8159C6.7393 17.0444 7.06329 17.0444 7.341 16.8159C7.57242 16.5873 12.8489 10.6907 12.8489 6.75954C12.8026 3.65122 10.1181 1 6.83187 1ZM6.83187 9.73074C5.21191 9.73074 3.91593 8.45084 3.91593 6.85097C3.91593 5.25109 5.21191 3.97119 6.83187 3.97119C8.45183 3.97119 9.7478 5.25109 9.7478 6.85097C9.84037 8.45084 8.49812 9.73074 6.83187 9.73074Z" stroke="white" stroke-miterlimit="10"/>
</svg>
