<svg width="43" height="42" viewBox="0 0 43 42" fill="none" xmlns="http://www.w3.org/2000/svg">
<g clip-path="url(#clip0)">
<path d="M21.7428 41.0076C33.0101 41.0076 42.1441 32.1013 42.1441 21.1149C42.1441 10.1285 33.0101 1.22217 21.7428 1.22217C10.4756 1.22217 1.34161 10.1285 1.34161 21.1149C1.34161 32.1013 10.4756 41.0076 21.7428 41.0076Z" fill="#0082E0"/>
<path fill-rule="evenodd" clip-rule="evenodd" d="M34.342 14.9489C34.5237 14.3805 34.342 13.9629 33.4774 13.9629H30.6184C29.8915 13.9629 29.5563 14.3237 29.3745 14.7215C29.3745 14.7215 27.9207 18.0463 25.861 20.206C25.1947 20.8311 24.8918 21.0301 24.5283 21.0301C24.3466 21.0301 24.074 20.8311 24.074 20.2629V14.9489C24.074 14.2669 23.8725 13.9629 23.2667 13.9629H18.774C18.3197 13.9629 18.0465 14.2794 18.0465 14.5794C18.0465 15.226 19.0763 15.3751 19.1824 17.1938V21.1438C19.1824 22.0098 19.0157 22.1669 18.6523 22.1669C17.683 22.1669 15.3254 18.8272 13.9271 15.0057C13.6531 14.2629 13.3783 13.9629 12.6476 13.9629H9.78861C8.97174 13.9629 8.80835 14.3237 8.80835 14.7215C8.80835 15.4319 9.77764 18.9557 13.3214 23.6161C15.6839 26.7987 19.0125 28.524 22.0414 28.524C23.8587 28.524 24.0836 28.1408 24.0836 27.4807V25.0753C24.0836 24.3089 24.2557 24.156 24.8312 24.156C25.2553 24.156 25.9822 24.3549 27.6784 25.8894C29.6169 27.7081 29.9365 28.524 31.0269 28.524H33.8858C34.7027 28.524 35.1111 28.1408 34.8755 27.3846C34.6177 26.6309 33.6921 25.5375 32.4641 24.2412C31.7977 23.5024 30.7982 22.7067 30.4953 22.3088C30.0712 21.7974 30.1924 21.57 30.4953 21.1154C30.4953 21.1154 33.9785 16.5118 34.342 14.9489Z" fill="white"/>
</g>
<defs>
<clipPath id="clip0">
<rect width="42" height="40.9531" fill="white" transform="translate(0.875 0.76709)"/>
</clipPath>
</defs>
</svg>
