<svg width="42" height="42" viewBox="0 0 42 42" fill="none" xmlns="http://www.w3.org/2000/svg">
<g clip-path="url(#clip0)">
<path d="M20.8678 41.0076C32.1351 41.0076 41.2691 32.1013 41.2691 21.1149C41.2691 10.1285 32.1351 1.22217 20.8678 1.22217C9.60057 1.22217 0.466614 10.1285 0.466614 21.1149C0.466614 32.1013 9.60057 41.0076 20.8678 41.0076Z" fill="#EE3829"/>
<g clip-path="url(#clip1)">
<path d="M33.6082 15.025C33.3026 13.8874 32.3856 13.0531 31.3158 12.7498C29.2526 12.1431 21 12.1431 21 12.1431C21 12.1431 12.8238 12.1431 10.7606 12.6739C9.69085 12.9773 8.7739 13.8874 8.46824 14.9491C7.93335 16.9968 7.93335 21.2438 7.93335 21.2438C7.93335 21.2438 7.93335 25.4908 8.46824 27.4626C8.7739 28.6002 9.69085 29.4344 10.7606 29.7377C12.8238 30.3445 21 30.3445 21 30.3445C21 30.3445 29.1762 30.3445 31.2394 29.8136C32.3856 29.5102 33.2261 28.6002 33.5318 27.5384C34.0667 25.4907 34.0667 21.3196 34.0667 21.3196C34.0667 21.3196 34.1431 16.9968 33.6082 15.025ZM18.402 25.1116V17.376L25.2027 21.2438L18.402 25.1116Z" fill="white"/>
</g>
</g>
<defs>
<clipPath id="clip0">
<rect width="42" height="40.9531" fill="white" transform="translate(0 0.76709)"/>
</clipPath>
<clipPath id="clip1">
<rect width="26.1333" height="18.2014" fill="white" transform="translate(7.93335 12.1431)"/>
</clipPath>
</defs>
</svg>
